<svg version="1.2" xmlns="http://www.w3.org/2000/svg" viewBox="0 0 512 512" width="24" height="24">
	<title>call-outgoing_5070416</title>
	<style>
		.s0 { fill: #000000 } 
	</style>
	<path class="s0" d="m511.6 43.2v85.3c0 5.6-2.3 11.1-6.3 15.1-4 4-9.4 6.2-15.1 6.2-5.6 0-11-2.2-15-6.2-4-4-6.3-9.5-6.3-15.1v-54.7l-113.1 112.5c-4 3.9-9.4 6-15 5.9-5.6 0-10.9-2.3-14.9-6.3-3.9-3.9-6.1-9.3-6.2-14.9 0-5.6 2.2-11 6.1-15l113.5-112.8h-55.7c-5.7 0-11.1-2.3-15.1-6.3-4-4-6.3-9.4-6.3-15.1 0-5.6 2.3-11.1 6.3-15.1 4-4 9.4-6.2 15.1-6.2h85.3c5.6 0 11.2 1.1 16.3 3.2 5.2 2.2 9.9 5.3 13.9 9.3 3.9 3.9 7.1 8.7 9.2 13.8 2.2 5.2 3.3 10.8 3.3 16.4zm-19.3 314.4c6.1 6.1 10.9 13.4 14.3 21.4 3.3 8 5 16.6 5 25.3 0 8.7-1.7 17.2-5 25.3-3.4 8-8.2 15.2-14.3 21.4l-19.5 22.4c-174.7 167.2-599.9-257.8-435.2-433.1l24.5-21.3c6.2-6 13.4-10.7 21.4-13.8 7.9-3.2 16.4-4.8 25-4.7 8.5 0 17 1.8 24.9 5.1 7.9 3.3 15 8.1 21.1 14.2 0.6 0.7 40.1 52 40.1 52 5.9 6.1 10.4 13.3 13.6 21.1 3.1 7.8 4.7 16.2 4.7 24.6 0 8.4-1.7 16.8-4.8 24.6-3.1 7.8-7.8 15-13.6 21.1l-24.7 31c6.8 16.6 15.2 32.5 25.2 47.4 9.9 14.9 21.3 28.8 33.9 41.5 12.7 12.7 26.6 24.1 41.5 34 14.9 10 30.7 18.4 47.3 25.3l31.2-24.9c6.1-5.8 13.2-10.4 21.1-13.5 7.8-3.2 16.1-4.8 24.5-4.8 8.5 0 16.8 1.6 24.6 4.7 7.9 3.1 15 7.7 21.1 13.5 6.1 5.8 51.4 39.5 52.1 40.2zm-29.4 31c0 0-51-39.3-51.7-39.9-2.2-2.2-4.7-3.9-7.6-5.1-2.8-1.1-5.8-1.7-8.9-1.7-3.1 0-6.1 0.6-8.9 1.7-2.9 1.2-5.4 2.9-7.6 5.1-0.6 0.5-43.6 34.8-43.6 34.8q-2.2 1.8-4.7 2.9-2.6 1.1-5.3 1.5-2.8 0.4-5.6 0.2-2.7-0.3-5.3-1.3c-21.5-8-42-18.3-61.3-30.6-19.2-12.4-37.1-26.8-53.3-42.9-16.2-16.2-30.6-34.1-43-53.3-12.4-19.3-22.7-39.8-30.7-61.2q-1-2.6-1.3-5.4-0.4-2.9 0-5.6 0.4-2.8 1.6-5.4 1.1-2.6 2.8-4.8c1.2-1.5 34.3-43.1 34.9-43.6 2.1-2.2 3.9-4.8 5-7.6 1.2-2.9 1.8-5.9 1.8-9 0-3-0.6-6.1-1.8-8.9-1.1-2.8-2.9-5.4-5-7.6-0.6-0.6-39.9-51.7-39.9-51.7-2.3-2-4.8-3.5-7.6-4.6-2.8-1-5.7-1.5-8.7-1.4-3 0.1-5.9 0.7-8.6 1.9-2.8 1.1-5.3 2.8-7.4 4.9l-24.5 21.3c-120.4 144.7 248.1 492.8 374.9 373l19.5-22.4c2.2-2.1 4.1-4.6 5.4-7.4 1.3-2.8 2.1-5.8 2.3-8.9 0.1-3-0.3-6.1-1.3-9.1-1-2.9-2.5-5.6-4.6-7.9z"/>
</svg>